<svg width="250" height="250" viewBox="0 0 250 250" fill="none" xmlns="http://www.w3.org/2000/svg">
<path d="M235.156 8.59372C233.203 7.03122 230.469 6.24997 227.734 7.03122L86.7188 37.8906C82.8125 38.6718 79.6875 42.1875 79.6875 46.4843V166.016C72.6563 160.937 63.6719 157.812 54.2969 157.812C30.4688 157.812 11.3281 176.953 11.3281 200.781C11.3281 224.609 30.4688 243.75 54.2969 243.75C78.125 243.75 97.2656 224.609 97.2656 200.781V113.672L221.094 86.7187V141.797C214.062 136.719 205.078 133.594 195.703 133.594C171.875 133.594 152.734 152.734 152.734 176.562C152.734 200.391 171.875 219.531 195.703 219.531C219.531 219.531 238.672 200.391 238.672 176.562V15.625C238.672 12.8906 237.5 10.5468 235.156 8.59372ZM54.2969 225.781C40.2344 225.781 28.9063 214.453 28.9063 200.391C28.9063 186.328 40.2344 175 54.2969 175C68.3594 175 79.6875 186.328 79.6875 200.391C79.6875 214.453 68.3594 225.781 54.2969 225.781ZM97.2656 53.5156L221.094 26.5625V68.75L97.2656 95.7031V53.5156ZM195.703 201.562C181.641 201.562 170.312 190.234 170.312 176.172C170.312 162.109 181.641 150.781 195.703 150.781C209.766 150.781 221.094 162.109 221.094 176.172C221.094 190.234 209.766 201.562 195.703 201.562Z" fill="url(#paint0_linear_502_20)"/>
<defs>
<linearGradient id="paint0_linear_502_20" x1="-7.5" y1="125" x2="300" y2="105" gradientUnits="userSpaceOnUse">
 <stop offset="0%" style="stop-color:rgb(255,255,0);stop-opacity:1" />
      <stop offset="100%" style="stop-color:rgb(255,0,0);stop-opacity:1" />
</linearGradient>
</defs>
</svg>
